PathFileType	4	(X/Y/Z)	markers.trc
DataRate	CameraRate	NumFrames	NumMarkers	Units	OrigDataRate	OrigDataStartFrame	OrigNumFrames
59.94	59.94	17	12	m	59.94	317	507
Frame#	Time	LEFT_SHOULDER			RIGHT_SHOULDER			LEFT_HIP			RIGHT_HIP			LEFT_KNEE			RIGHT_KNEE			LEFT_ANKLE			RIGHT_ANKLE			LEFT_HEEL			RIGHT_HEEL			LEFT_FOOT_INDEX			RIGHT_FOOT_INDEX		
		X1	Y1	Z1	X2	Y2	Z2	X3	Y3	Z3	X4	Y4	Z4	X5	Y5	Z5	X6	Y6	Z6	X7	Y7	Z7	X8	Y8	Z8	X9	Y9	Z9	X10	Y10	Z10	X11	Y11	Z11	X12	Y12	Z12

317	5.271933	3.782817	1.957461	0.000000	3.757310	1.962595	0.000000	3.792818	2.586669	0.000000	3.848489	2.570082	0.000000	3.786164	2.993459	0.000000	3.945087	3.018808	0.000000	3.770339	3.432610	0.000000	4.265423	3.410044	0.000000	3.830485	3.517235	0.000000	4.352925	3.421588	0.000000	3.583662	3.522420	0.000000	4.205848	3.623765	0.000000
318	5.288617	3.773470	1.956887	0.000000	3.747118	1.961750	0.000000	3.786916	2.583122	0.000000	3.836083	2.567625	0.000000	3.786039	2.993724	0.000000	3.920406	3.018476	0.000000	3.769966	3.433211	0.000000	4.247558	3.404047	0.000000	3.830791	3.518519	0.000000	4.333050	3.411091	0.000000	3.584098	3.522165	0.000000	4.197675	3.623096	0.000000
319	5.305300	3.764288	1.956297	0.000000	3.737345	1.961133	0.000000	3.781539	2.579588	0.000000	3.823863	2.565400	0.000000	3.785030	2.994380	0.000000	3.895696	3.018471	0.000000	3.769827	3.433818	0.000000	4.227732	3.398652	0.000000	3.830952	3.519902	0.000000	4.311301	3.402331	0.000000	3.584550	3.521898	0.000000	4.185747	3.622374	0.000000
320	5.321983	3.755299	1.955613	0.000000	3.727826	1.960698	0.000000	3.776240	2.576260	0.000000	3.811879	2.563487	0.000000	3.782627	2.995269	0.000000	3.871285	3.018698	0.000000	3.770012	3.434400	0.000000	4.206078	3.394167	0.000000	3.830961	3.521231	0.000000	4.287894	3.395704	0.000000	3.585051	3.521627	0.000000	4.169019	3.621499	0.000000
321	5.338667	3.746274	1.954824	0.000000	3.718550	1.960398	0.000000	3.770644	2.573222	0.000000	3.800245	2.561889	0.000000	3.778321	2.996235	0.000000	3.847372	3.019068	0.000000	3.770574	3.434923	0.000000	4.182720	3.390760	0.000000	3.830856	3.522367	0.000000	4.262949	3.391293	0.000000	3.585594	3.521363	0.000000	4.146751	3.620373	0.000000
322	5.355350	3.736774	1.953999	0.000000	3.709629	1.960182	0.000000	3.764413	2.570427	0.000000	3.789098	2.560509	0.000000	3.771624	2.997130	0.000000	3.824057	3.019494	0.000000	3.771503	3.435354	0.000000	4.157654	3.388438	0.000000	3.830710	3.523212	0.000000	4.236407	3.388992	0.000000	3.586165	3.521120	0.000000	4.118731	3.618929	0.000000
323	5.372033	3.726518	1.953257	0.000000	3.701137	1.960012	0.000000	3.757348	2.567771	0.000000	3.778431	2.559200	0.000000	3.762217	2.997845	0.000000	3.801471	3.019891	0.000000	3.772717	3.435664	0.000000	4.130754	3.387104	0.000000	3.830617	3.523707	0.000000	4.208160	3.388687	0.000000	3.586797	3.520919	0.000000	4.085311	3.617152	0.000000
324	5.388717	3.715680	1.952706	0.000000	3.692962	1.959860	0.000000	3.749516	2.565201	0.000000	3.768010	2.557858	0.000000	3.750178	2.998313	0.000000	3.779786	3.020176	0.000000	3.774091	3.435818	0.000000	4.101842	3.386652	0.000000	3.830668	3.523798	0.000000	4.178225	3.390394	0.000000	3.587595	3.520788	0.000000	4.047225	3.615104	0.000000
325	5.405400	3.704806	1.952403	0.000000	3.684831	1.959718	0.000000	3.741249	2.562769	0.000000	3.757456	2.556484	0.000000	3.736118	2.998511	0.000000	3.759077	3.020269	0.000000	3.775482	3.435770	0.000000	4.070736	3.387048	0.000000	3.830934	3.523405	0.000000	4.146743	3.394306	0.000000	3.588727	3.520770	0.000000	4.005326	3.612927	0.000000
326	5.422083	3.694457	1.952362	0.000000	3.676444	1.959588	0.000000	3.732964	2.560622	0.000000	3.746426	2.555197	0.000000	3.721067	2.998438	0.000000	3.739177	3.020095	0.000000	3.776744	3.435456	0.000000	4.037269	3.388364	0.000000	3.831437	3.522426	0.000000	4.113829	3.400783	0.000000	3.590381	3.520919	0.000000	3.960303	3.610796	0.000000
327	5.438767	3.684912	1.952573	0.000000	3.667621	1.959479	0.000000	3.724882	2.558925	0.000000	3.734756	2.554141	0.000000	3.706124	2.998110	0.000000	3.719629	3.019591	0.000000	3.777719	3.434824	0.000000	4.001343	3.390805	0.000000	3.832137	3.520749	0.000000	4.079453	3.410294	0.000000	3.592707	3.521301	0.000000	3.912498	3.608852	0.000000
328	5.455450	3.676110	1.953015	0.000000	3.658350	1.959404	0.000000	3.716915	2.557759	0.000000	3.722487	2.553402	0.000000	3.692151	2.997572	0.000000	3.699863	3.018727	0.000000	3.778207	3.433871	0.000000	3.963045	3.394713	0.000000	3.832904	3.518306	0.000000	4.043378	3.423232	0.000000	3.595723	3.521972	0.000000	3.862001	3.607166	0.000000
329	5.472133	3.667787	1.953660	0.000000	3.648747	1.959372	0.000000	3.708777	2.557090	0.000000	3.709752	2.552993	0.000000	3.679746	2.996910	0.000000	3.679477	3.017521	0.000000	3.777970	3.432710	0.000000	3.922686	3.400513	0.000000	3.833495	3.515195	0.000000	4.005178	3.439588	0.000000	3.599259	3.522950	0.000000	3.808989	3.605754	0.000000
330	5.488817	3.659677	1.954468	0.000000	3.638966	1.959400	0.000000	3.700215	2.556803	0.000000	3.696636	2.552898	0.000000	3.669411	2.996267	0.000000	3.658447	3.016045	0.000000	3.776792	3.431620	0.000000	3.880716	3.408571	0.000000	3.833559	3.511790	0.000000	3.964408	3.458710	0.000000	3.602986	3.524159	0.000000	3.754017	3.604619	0.000000
331	5.505500	3.651648	1.955411	0.000000	3.629112	1.959511	0.000000	3.691216	2.556762	0.000000	3.683101	2.553125	0.000000	3.661661	2.995810	0.000000	3.637073	3.014406	0.000000	3.774611	3.431002	0.000000	3.837503	3.419060	0.000000	3.832759	3.508682	0.000000	3.920838	3.479432	0.000000	3.606527	3.525381	0.000000	3.697943	3.603785	0.000000
332	5.522183	3.643735	1.956477	0.000000	3.619215	1.959732	0.000000	3.682119	2.556856	0.000000	3.668979	2.553735	0.000000	3.656893	2.995673	0.000000	3.615633	3.012735	0.000000	3.771647	3.431240	0.000000	3.793169	3.431823	0.000000	3.831006	3.506425	0.000000	3.874564	3.500458	0.000000	3.609567	3.526281	0.000000	3.641550	3.603300	0.000000
333	5.538867	3.636067	1.957656	0.000000	3.609263	1.960085	0.000000	3.673504	2.557024	0.000000	3.654073	2.554844	0.000000	3.655145	2.995932	0.000000	3.594130	3.011195	0.000000	3.768410	3.432562	0.000000	3.747620	3.446280	0.000000	3.828599	3.505344	0.000000	3.825851	3.520715	0.000000	3.611881	3.526531	0.000000	3.585254	3.603189	0.000000
